# xmcd CD database file
# Copyright (C) 1993-1998 Ti Kan
#
# Track frame offsets:
#  182
#  21320
#  40640
#  61407
#  81530
#  94222
#  114950
#  136050
#  171832
#  190720
#  223120
#
# Disc length: 3167 seconds
#
# Revision: 1
# Processed by: cddbd v1.4b41PL1 Copyright (c) Steve Scherf et al.
# Submitted via: CDWizzard Release:4.35
#
DISCID=930c5d0b
DTITLE=Skip MaHoney And The Casuals - Now And Then
DYEAR=1900
DGENRE=
TTITLE0=Welcome Aboard
TTITLE1=Overnight Express
TTITLE2=Take Care
TTITLE3=Benny And The Jets
TTITLE4=Never Let Me Go
TTITLE5=Wherever You Go
TTITLE6=Your Funny Moods
TTITLE7=I Need Your Love
TTITLE8=Land Of Love
TTITLE9=Benny And The Jets 
TTITLE10=Bless My Soul
EXTD=
EXTT0=
EXTT1=
EXTT2=
EXTT3=
EXTT4=
EXTT5=
EXTT6=
EXTT7=
EXTT8=
EXTT9=
EXTT10=
PLAYORDER=
